<svg width="78" height="78" viewBox="0 0 78 78" fill="none" xmlns="http://www.w3.org/2000/svg">
<path d="M1.67578 57.7383V20.2617C1.67578 18.0223 3.61054 16.1942 5.98711 16.1942H72.0129C74.3895 16.1942 76.3242 18.0223 76.3242 20.2617V57.7383C76.3242 59.9778 74.3895 61.8059 72.0129 61.8059H5.98711C3.61054 61.8059 1.67578 59.993 1.67578 57.7383ZM72.5918 57.7383V20.2617C72.5918 20.1246 72.3633 19.9266 72.0129 19.9266H5.98711C5.62148 19.9266 5.4082 20.1399 5.4082 20.2617V57.7383C5.4082 57.8754 5.63672 58.0735 5.98711 58.0735H72.0129C72.3633 58.0735 72.5918 57.8754 72.5918 57.7383Z" fill="white"/>
<path d="M62.8723 31.4438C61.585 31.4438 60.5414 30.4002 60.5414 29.1129C60.5414 27.8256 61.585 26.782 62.8723 26.782C64.1596 26.782 65.2031 27.8256 65.2031 29.1129C65.2031 30.4002 64.1596 31.4438 62.8723 31.4438Z" fill="white"/>
<path d="M53.3203 31.4438C52.033 31.4438 50.9895 30.4002 50.9895 29.1129C50.9895 27.8256 52.033 26.782 53.3203 26.782C54.6076 26.782 55.6512 27.8256 55.6512 29.1129C55.6512 30.4002 54.6076 31.4438 53.3203 31.4438Z" fill="white"/>
<path d="M43.7836 31.4438C42.4963 31.4438 41.4527 30.4002 41.4527 29.1129C41.4527 27.8256 42.4963 26.782 43.7836 26.782C45.0709 26.782 46.1144 27.8256 46.1144 29.1129C46.1144 30.4002 45.0709 31.4438 43.7836 31.4438Z" fill="white"/>
<path d="M34.2316 31.4438C32.9443 31.4438 31.9008 30.4002 31.9008 29.1129C31.9008 27.8256 32.9443 26.782 34.2316 26.782C35.5189 26.782 36.5625 27.8256 36.5625 29.1129C36.5625 30.4002 35.5189 31.4438 34.2316 31.4438Z" fill="white"/>
<path d="M24.6797 31.4438C23.3924 31.4438 22.3488 30.4002 22.3488 29.1129C22.3488 27.8256 23.3924 26.782 24.6797 26.782C25.967 26.782 27.0106 27.8256 27.0106 29.1129C27.0106 30.4002 25.967 31.4438 24.6797 31.4438Z" fill="white"/>
<path d="M15.1278 31.4438C13.8405 31.4438 12.7969 30.4002 12.7969 29.1129C12.7969 27.8256 13.8405 26.782 15.1278 26.782C16.4151 26.782 17.4586 27.8256 17.4586 29.1129C17.4586 30.4002 16.4151 31.4438 15.1278 31.4438Z" fill="white"/>
<path d="M58.0887 41.3308C56.8014 41.3308 55.7578 40.2873 55.7578 39C55.7578 37.7127 56.8014 36.6691 58.0887 36.6691C59.376 36.6691 60.4196 37.7127 60.4196 39C60.4196 40.2873 59.376 41.3308 58.0887 41.3308Z" fill="white"/>
<path d="M48.552 41.3308C47.2647 41.3308 46.2211 40.2873 46.2211 39C46.2211 37.7127 47.2647 36.6691 48.552 36.6691C49.8393 36.6691 50.8828 37.7127 50.8828 39C50.8828 40.2873 49.8393 41.3308 48.552 41.3308Z" fill="white"/>
<path d="M39 41.3308C37.7127 41.3308 36.6692 40.2873 36.6692 39C36.6692 37.7127 37.7127 36.6691 39 36.6691C40.2873 36.6691 41.3309 37.7127 41.3309 39C41.3309 40.2873 40.2873 41.3308 39 41.3308Z" fill="white"/>
<path d="M29.4633 41.3308C28.176 41.3308 27.1324 40.2873 27.1324 39C27.1324 37.7127 28.176 36.6691 29.4633 36.6691C30.7506 36.6691 31.7941 37.7127 31.7941 39C31.7941 40.2873 30.7506 41.3308 29.4633 41.3308Z" fill="white"/>
<path d="M19.9113 36.6691C21.2063 36.6691 22.2422 37.7203 22.2422 39C22.2422 40.2949 21.191 41.3308 19.9113 41.3308C18.6164 41.3308 17.5805 40.2797 17.5805 39C17.5805 37.7051 18.6164 36.6691 19.9113 36.6691Z" fill="white"/>
<path d="M22.3489 47.0285H55.6512C56.6871 47.0285 57.525 47.8664 57.525 48.9023C57.525 49.9383 56.6871 50.7762 55.6512 50.7762H22.3489C21.3129 50.7762 20.475 49.9383 20.475 48.9023C20.475 47.8664 21.3129 47.0285 22.3489 47.0285Z" fill="white"/>
</svg>
